<?xml version="1.0" encoding="UTF-8" standalone="no"?>
<svg
   version="1.0"
   width="241.76106pt"
   height="275.03687pt"
   viewBox="0 0 241.76107 275.03686"
   preserveAspectRatio="xMidYMid"
   id="svg146"
   xml:space="preserve"
   xmlns="http://www.w3.org/2000/svg"
   xmlns:svg="http://www.w3.org/2000/svg"><defs
     id="defs150" /><metadata
     id="metadata116">
Created by potrace 1.16, written by Peter Selinger 2001-2019
</metadata><g
     transform="matrix(0.03647439,0,0,-0.03717362,-65.718045,326.7352)"
     fill="#000000"
     stroke="none"
     id="dashboard"
     style="fill:#006680"><desc
       id="desc1868">Dashboard</desc><path
       d="m 4984,8767 c -85,-31 -2973,-1730 -3036,-1786 -58,-52 -91,-101 -122,-180 l -21,-56 -3,-1614 c -1,-1057 1,-1634 8,-1670 14,-78 71,-188 122,-238 25,-25 204,-137 438,-276 217,-129 688,-407 1045,-619 358,-212 848,-503 1090,-646 487,-288 510,-299 640,-289 39,3 90,13 115,23 25,10 671,387 1435,839 765,452 1424,841 1465,865 147,84 213,158 250,279 20,62 20,98 20,1696 0,1572 -1,1636 -19,1694 -24,76 -59,136 -108,183 -33,32 -437,273 -1623,970 -173,101 -441,259 -595,350 -154,91 -395,233 -535,316 -141,82 -280,157 -310,166 -77,23 -182,20 -256,-7 z m 223,-1163 c 39,-29 63,-65 74,-110 5,-21 9,-230 8,-464 v -425 l 593,-5 593,-5 52,-27 c 68,-36 114,-77 152,-136 59,-92 61,-115 61,-664 v -497 l 398,-3 397,-3 33,-23 c 98,-70 85,-234 -22,-283 -38,-17 -72,-19 -423,-19 h -382 l -3,-547 c -3,-547 -3,-548 -26,-598 -35,-75 -70,-122 -122,-160 -98,-72 -71,-69 -717,-75 l -583,-5 -2,-440 c -3,-395 -5,-443 -20,-472 -52,-95 -183,-117 -262,-45 -56,52 -56,54 -56,526 v 435 l -592,3 -593,3 -58,29 c -71,36 -140,108 -175,184 l -27,57 -3,553 -3,552 h -382 c -377,0 -383,0 -427,23 -59,29 -85,75 -85,149 0,62 17,94 69,132 26,20 41,21 426,24 l 399,3 3,532 3,532 27,55 c 39,80 88,132 160,171 l 63,34 597,3 597,3 3,463 3,463 29,37 c 16,21 43,44 60,52 42,20 129,13 163,-12 z"
       id="path1572"
       style="fill:#006680" /><path
       d="m 5084,6180 c -1198,-5 -1119,-1 -1150,-61 -12,-24 -14,-181 -14,-1041 0,-995 0,-1014 20,-1046 11,-18 31,-37 45,-42 15,-6 464,-10 1132,-11 1232,-2 1153,-7 1187,65 14,31 16,129 16,1035 0,843 -2,1007 -14,1036 -15,34 -50,59 -96,66 -14,2 -520,2 -1126,-1 z"
       id="path1574"
       style="fill:#006680" /></g></svg>
